<svg xmlns="http://www.w3.org/2000/svg" width="39" height="39" viewBox="0 0 39 39">
  <metadata><?xpacket begin="﻿" id="W5M0MpCehiHzreSzNTczkc9d"?>
<x:xmpmeta xmlns:x="adobe:ns:meta/" x:xmptk="Adobe XMP Core 5.6-c138 79.159824, 2016/09/14-01:09:01        ">
   <rdf:RDF xmlns:rdf="http://www.w3.org/1999/02/22-rdf-syntax-ns#">
      <rdf:Description rdf:about=""/>
   </rdf:RDF>
</x:xmpmeta>
                                                                                                    
                                                                                                    
                                                                                                    
                                                                                                    
                                                                                                    
                                                                                                    
                                                                                                    
                                                                                                    
                                                                                                    
                                                                                                    
                                                                                                    
                                                                                                    
                                                                                                    
                                                                                                    
                                                                                                    
                                                                                                    
                                                                                                    
                                                                                                    
                                                                                                    
                                                                                                    
                           
<?xpacket end="w"?></metadata>
<defs>
    <style>
      .cls-1 {
        fill: #fff;
        fill-rule: evenodd;
      }
    </style>
  </defs>
  <path id="Forma_1" data-name="Forma 1" class="cls-1" d="M1861.51,502.157a1.523,1.523,0,1,1-1.52,1.522A1.529,1.529,0,0,1,1861.51,502.157Zm0,7.616a1.524,1.524,0,1,1-1.52,1.524A1.53,1.53,0,0,1,1861.51,509.773Zm-2.89-.761h5.79a1.524,1.524,0,0,0,0-3.047h-5.79A1.524,1.524,0,1,0,1858.62,509.012Zm0-17.976h1.37v1.37a1.525,1.525,0,0,0,3.05,0v-1.37h1.37a1.524,1.524,0,0,0,0-3.048h-1.37v-1.371a1.525,1.525,0,0,0-3.05,0v1.371h-1.37A1.524,1.524,0,1,0,1858.62,491.036Zm29.86,14.777a1.521,1.521,0,0,0,1.52-1.524V485.094a6.1,6.1,0,0,0-6.09-6.094h-26.82a6.1,6.1,0,0,0-6.09,6.094v26.813a6.1,6.1,0,0,0,6.09,6.093h26.82a6.1,6.1,0,0,0,6.09-6.093,1.525,1.525,0,0,0-3.05,0A3.01,3.01,0,0,1,1884,515h-12V500h15l-0.05,4.289A1.53,1.53,0,0,0,1888.48,505.813ZM1869,515h-12a3.01,3.01,0,0,1-2.95-3.093L1854,500h15v15Zm-0.02-17.947h-14.93V485.094A3.01,3.01,0,0,1,1857,482h12Zm3.04,0L1872,482h12a2.971,2.971,0,0,1,3,3v12Zm10.79,7.123a1.518,1.518,0,0,0-2.15,0l-1.17,1.17-1.17-1.17a1.525,1.525,0,0,0-2.16,2.154l1.17,1.171-1.17,1.17a1.525,1.525,0,0,0,2.16,2.154l1.17-1.171,1.17,1.171a1.487,1.487,0,0,0,1.07.446,1.523,1.523,0,0,0,1.08-2.6l-1.17-1.17,1.17-1.171A1.532,1.532,0,0,0,1882.81,504.176Zm-0.43-16.188h-5.79a1.524,1.524,0,0,0,0,3.048h5.79A1.524,1.524,0,1,0,1882.38,487.988Z" transform="translate(-1851 -479)"/>
</svg>
