<svg xmlns="http://www.w3.org/2000/svg" width="39" height="39" viewBox="0 0 39 39">
  <metadata><?xpacket begin="﻿" id="W5M0MpCehiHzreSzNTczkc9d"?>
<x:xmpmeta xmlns:x="adobe:ns:meta/" x:xmptk="Adobe XMP Core 5.6-c138 79.159824, 2016/09/14-01:09:01        ">
   <rdf:RDF xmlns:rdf="http://www.w3.org/1999/02/22-rdf-syntax-ns#">
      <rdf:Description rdf:about=""/>
   </rdf:RDF>
</x:xmpmeta>
                                                                                                    
                                                                                                    
                                                                                                    
                                                                                                    
                                                                                                    
                                                                                                    
                                                                                                    
                                                                                                    
                                                                                                    
                                                                                                    
                                                                                                    
                                                                                                    
                                                                                                    
                                                                                                    
                                                                                                    
                                                                                                    
                                                                                                    
                                                                                                    
                                                                                                    
                                                                                                    
                           
<?xpacket end="w"?></metadata>
<defs>
    <style>
      .cls-1 {
        fill: #fff;
        fill-rule: evenodd;
      }
    </style>
  </defs>
  <path id="Forma_1" data-name="Forma 1" class="cls-1" d="M1884.29,585.712a19.5,19.5,0,1,0-3.7,30.477,1.523,1.523,0,0,0-1.58-2.605,16.6,16.6,0,1,1,5.15-4.952,1.526,1.526,0,0,0,2.54,1.693A19.461,19.461,0,0,0,1884.29,585.712Zm-18.49,22.745a1.516,1.516,0,0,0,2.06-.616l8.24-15.233a1.524,1.524,0,0,0-2.68-1.45l-8.24,15.235A1.524,1.524,0,0,0,1865.8,608.457Zm2.19-14.288a3.81,3.81,0,1,0-3.81,3.808A3.814,3.814,0,0,0,1867.99,594.169Zm-3.81.76a0.761,0.761,0,1,1,.76-0.76A0.76,0.76,0,0,1,1864.18,594.929Zm12.57,13.711a3.809,3.809,0,1,0-3.81-3.808A3.805,3.805,0,0,0,1876.75,608.64Zm0-4.57a0.762,0.762,0,0,1,0,1.524A0.762,0.762,0,1,1,1876.75,604.07Z" transform="translate(-1851 -580)"/>
</svg>
