<svg xmlns="http://www.w3.org/2000/svg" xmlns:xlink="http://www.w3.org/1999/xlink" width="43" height="50" viewBox="0 0 43 50">
  <metadata><?xpacket begin="﻿" id="W5M0MpCehiHzreSzNTczkc9d"?>
<x:xmpmeta xmlns:x="adobe:ns:meta/" x:xmptk="Adobe XMP Core 5.6-c138 79.159824, 2016/09/14-01:09:01        ">
   <rdf:RDF xmlns:rdf="http://www.w3.org/1999/02/22-rdf-syntax-ns#">
      <rdf:Description rdf:about=""/>
   </rdf:RDF>
</x:xmpmeta>
                                                                                                    
                                                                                                    
                                                                                                    
                                                                                                    
                                                                                                    
                                                                                                    
                                                                                                    
                                                                                                    
                                                                                                    
                                                                                                    
                                                                                                    
                                                                                                    
                                                                                                    
                                                                                                    
                                                                                                    
                                                                                                    
                                                                                                    
                                                                                                    
                                                                                                    
                                                                                                    
                           
<?xpacket end="w"?></metadata>
<defs>
    <style>
      .cls-1 {
        fill: #fff;
        fill-rule: evenodd;
        filter: url(#filter);
      }
    </style>
    <filter id="filter" x="1415" y="641" width="43" height="50" filterUnits="userSpaceOnUse">
      <feOffset result="offset" dy="1" in="SourceAlpha"/>
      <feGaussianBlur result="blur" stdDeviation="1.414"/>
      <feFlood result="flood" flood-opacity="0.2"/>
      <feComposite result="composite" operator="in" in2="blur"/>
      <feBlend result="blend" in="SourceGraphic"/>
    </filter>
  </defs>
  <path id="Forma_1" data-name="Forma 1" class="cls-1" d="M1455,662h-5l0.06-19.517a1.488,1.488,0,0,0-1.49-1.483h-21.21a1.5,1.5,0,0,0-1.13.508l-9.86,11.248a1.472,1.472,0,0,0-.37.976v32.785a1.49,1.49,0,0,0,1.49,1.484h31.08a1.49,1.49,0,0,0,1.49-1.484L1450,682h5c0.82,0,1-.4,1-1.217V663.718C1456,662.9,1455.82,662,1455,662Zm-2,17h-28V665h28l0.02,14.3Zm-27.14-32.56v5.809h-5.09Zm21.22,38.593h-28.1L1419,655h8c0.82,0,1.85-.447,1.85-1.267v-9.765h18.23L1447,662h-23a2.174,2.174,0,0,0-1.96,1.718v17.065c0,0.819.14,1.217,0.96,1.217h24l0.08,3.033h0ZM1431.7,667.99h-3.95V676.6h1.81v-3.1h2.07a2.649,2.649,0,0,0,2.76-2.746A2.523,2.523,0,0,0,1431.7,667.99Zm-0.47,4.016h-1.67v-2.529h1.43c1.12,0,1.59.347,1.59,1.187A1.173,1.173,0,0,1,1431.23,672.006Zm8.37-4.016h-3.81V676.6h3.74c2.86,0,3.59-2.662,3.59-4.508C1443.12,670.46,1442.52,667.99,1439.6,667.99Zm-0.29,7.121h-1.75v-5.634h1.73c0.77,0,1.99.2,1.99,2.746C1441.28,673.637,1440.78,675.111,1439.31,675.111Zm5.17-7.121V676.6h1.81v-3.621h3.81v-1.522h-3.81v-1.943h4.35V667.99h-6.16Z" transform="translate(-1415 -641)"/>
</svg>
