<svg xmlns="http://www.w3.org/2000/svg" width="39.03" height="39" viewBox="0 0 39.03 39">
  <metadata><?xpacket begin="﻿" id="W5M0MpCehiHzreSzNTczkc9d"?>
<x:xmpmeta xmlns:x="adobe:ns:meta/" x:xmptk="Adobe XMP Core 5.6-c138 79.159824, 2016/09/14-01:09:01        ">
   <rdf:RDF xmlns:rdf="http://www.w3.org/1999/02/22-rdf-syntax-ns#">
      <rdf:Description rdf:about=""/>
   </rdf:RDF>
</x:xmpmeta>
                                                                                                    
                                                                                                    
                                                                                                    
                                                                                                    
                                                                                                    
                                                                                                    
                                                                                                    
                                                                                                    
                                                                                                    
                                                                                                    
                                                                                                    
                                                                                                    
                                                                                                    
                                                                                                    
                                                                                                    
                                                                                                    
                                                                                                    
                                                                                                    
                                                                                                    
                                                                                                    
                           
<?xpacket end="w"?></metadata>
<defs>
    <style>
      .cls-1 {
        fill: #fff;
        fill-rule: evenodd;
      }
    </style>
  </defs>
  <path id="Forma_1" data-name="Forma 1" class="cls-1" d="M1888.55,404.909l-7.74-7.7,5.9-5.883a7.8,7.8,0,1,0-11.03-11.036l-5.87,5.869-7.74-7.711a1.526,1.526,0,0,0-2.16.008l-9.47,9.562a1.528,1.528,0,0,0,.01,2.151l7.69,7.661-4.27,4.268a1.57,1.57,0,0,0-.39.669l-3.42,12.306a1.519,1.519,0,0,0,1.47,1.932,1.542,1.542,0,0,0,.41-0.058l12.31-3.5a1.53,1.53,0,0,0,.66-2.542l-7.76-7.782,18.08-18.077,6.72,6.724-13.84,13.8a1.514,1.514,0,0,0-.45,1.08,1.555,1.555,0,0,0,.45,1.08l8.9,8.828a1.511,1.511,0,0,0,1.07.442h0.01a1.512,1.512,0,0,0,1.07-.452l9.4-9.487A1.529,1.529,0,0,0,1888.55,404.909Zm-27.63,6.314-7.2,2.046,2.02-7.248Zm-0.62-15.552-6.62-6.594,7.32-7.4,2.42,2.408-3,3.05a1.524,1.524,0,0,0,.01,2.155,1.541,1.541,0,0,0,1.07.437,1.517,1.517,0,0,0,1.09-.455l2.99-3.037,2.08,2.071Zm17.08-12.779,0.45-.452a4.757,4.757,0,0,1,6.73,6.724l-0.45.454Zm0.69,30.429-6.72-6.675,7.31-7.29,2.05,2.046-2.92,2.946a1.524,1.524,0,0,0,0,2.155,1.541,1.541,0,0,0,1.08.443,1.524,1.524,0,0,0,1.08-.451l2.92-2.943,2.45,2.444Z" transform="translate(-1850 -378)"/>
</svg>
