<svg xmlns="http://www.w3.org/2000/svg" width="12" height="16" viewBox="0 0 12 16">
  <metadata><?xpacket begin="﻿" id="W5M0MpCehiHzreSzNTczkc9d"?>
<x:xmpmeta xmlns:x="adobe:ns:meta/" x:xmptk="Adobe XMP Core 5.6-c138 79.159824, 2016/09/14-01:09:01        ">
   <rdf:RDF xmlns:rdf="http://www.w3.org/1999/02/22-rdf-syntax-ns#">
      <rdf:Description rdf:about=""/>
   </rdf:RDF>
</x:xmpmeta>
                                                                                                    
                                                                                                    
                                                                                                    
                                                                                                    
                                                                                                    
                                                                                                    
                                                                                                    
                                                                                                    
                                                                                                    
                                                                                                    
                                                                                                    
                                                                                                    
                                                                                                    
                                                                                                    
                                                                                                    
                                                                                                    
                                                                                                    
                                                                                                    
                                                                                                    
                                                                                                    
                           
<?xpacket end="w"?></metadata>
<defs>
    <style>
      .cls-1 {
        fill: #999;
        fill-rule: evenodd;
      }
    </style>
  </defs>
  <path id="Lock" class="cls-1" d="M677,1640h-1v-2a4,4,0,0,0-8,0v2h-1a1,1,0,0,0-1,1v8a1,1,0,0,0,1,1h10a1,1,0,0,0,1-1v-8A1,1,0,0,0,677,1640Zm-7-2a2,2,0,0,1,4,0v2h-4v-2Zm6,10h-8v-6h8v6Zm-4-2a1,1,0,1,0-1-1A1,1,0,0,0,672,1646Z" transform="translate(-666 -1634)"/>
</svg>
