<svg xmlns="http://www.w3.org/2000/svg" width="24" height="20" viewBox="0 0 24 20">
  <metadata><?xpacket begin="﻿" id="W5M0MpCehiHzreSzNTczkc9d"?>
<x:xmpmeta xmlns:x="adobe:ns:meta/" x:xmptk="Adobe XMP Core 5.6-c138 79.159824, 2016/09/14-01:09:01        ">
   <rdf:RDF xmlns:rdf="http://www.w3.org/1999/02/22-rdf-syntax-ns#">
      <rdf:Description rdf:about=""/>
   </rdf:RDF>
</x:xmpmeta>
                                                                                                    
                                                                                                    
                                                                                                    
                                                                                                    
                                                                                                    
                                                                                                    
                                                                                                    
                                                                                                    
                                                                                                    
                                                                                                    
                                                                                                    
                                                                                                    
                                                                                                    
                                                                                                    
                                                                                                    
                                                                                                    
                                                                                                    
                                                                                                    
                                                                                                    
                                                                                                    
                           
<?xpacket end="w"?></metadata>
<defs>
    <style>
      .cls-1 {
        fill: #50b1e9;
        fill-rule: evenodd;
      }
    </style>
  </defs>
  <path class="cls-1" d="M895.458,1346.08l-21.947,8.46a0.791,0.791,0,0,0,.064,1.5l5.577,1.63,2.082,6.53a0.963,0.963,0,0,0,1.6.38l2.884-2.92,5.657,4.11a1.181,1.181,0,0,0,1.854-.7l3.747-17.72a1.125,1.125,0,0,0-1.515-1.27h0Zm-2.752,3.93-10.193,8.92a0.536,0.536,0,0,0-.182.35l-0.392,3.45a0.107,0.107,0,0,1-.206.02l-1.616-5.15a0.537,0.537,0,0,1,.235-0.62l12.038-7.39a0.264,0.264,0,0,1,.316.42h0Zm0,0" transform="translate(-873 -1346)"/>
</svg>
