<svg xmlns="http://www.w3.org/2000/svg" width="21.031" height="21.97" viewBox="0 0 21.031 21.97">
  <metadata><?xpacket begin="﻿" id="W5M0MpCehiHzreSzNTczkc9d"?>
<x:xmpmeta xmlns:x="adobe:ns:meta/" x:xmptk="Adobe XMP Core 5.6-c138 79.159824, 2016/09/14-01:09:01        ">
   <rdf:RDF xmlns:rdf="http://www.w3.org/1999/02/22-rdf-syntax-ns#">
      <rdf:Description rdf:about=""/>
   </rdf:RDF>
</x:xmpmeta>
                                                                                                    
                                                                                                    
                                                                                                    
                                                                                                    
                                                                                                    
                                                                                                    
                                                                                                    
                                                                                                    
                                                                                                    
                                                                                                    
                                                                                                    
                                                                                                    
                                                                                                    
                                                                                                    
                                                                                                    
                                                                                                    
                                                                                                    
                                                                                                    
                                                                                                    
                                                                                                    
                           
<?xpacket end="w"?></metadata>
<defs>
    <style>
      .cls-1 {
        fill: #8c60c3;
        fill-rule: evenodd;
      }
    </style>
  </defs>
  <path class="cls-1" d="M689.529,1351.29l-0.006-.03a7.284,7.284,0,0,0-4.894-4.76l-0.024-.01a27.109,27.109,0,0,0-10.236,0l-0.025.01a7.285,7.285,0,0,0-4.893,4.76l-0.006.03a20.54,20.54,0,0,0,0,8.74l0.006,0.02a7.366,7.366,0,0,0,4.624,4.7v2.31a0.92,0.92,0,0,0,1.583.65l2.32-2.44c0.5,0.03,1.006.04,1.509,0.04a26.784,26.784,0,0,0,5.118-.49h0.024a7.3,7.3,0,0,0,4.894-4.77l0.006-.02a20.54,20.54,0,0,0,0-8.74h0Zm-1.835,8.31a5.5,5.5,0,0,1-3.454,3.35,24.973,24.973,0,0,1-5.445.45,0.119,0.119,0,0,0-.1.04l-1.694,1.76-1.8,1.87a0.211,0.211,0,0,1-.363-0.15v-3.84a0.143,0.143,0,0,0-.106-0.13h0a5.5,5.5,0,0,1-3.454-3.35,18.575,18.575,0,0,1,0-7.89,5.521,5.521,0,0,1,3.454-3.35,24.918,24.918,0,0,1,9.506,0,5.521,5.521,0,0,1,3.454,3.35,18.575,18.575,0,0,1,0,7.89h0Zm0,0-5.206,1.78c-0.212-.07-0.414-0.11-0.6-0.19a13.658,13.658,0,0,1-5.153-3.49,13.5,13.5,0,0,1-1.971-3.05c-0.253-.52-0.466-1.06-0.684-1.6a1.388,1.388,0,0,1,.4-1.36,3.062,3.062,0,0,1,1.061-.81,0.676,0.676,0,0,1,.852.2,11.673,11.673,0,0,1,1.319,1.87,0.9,0.9,0,0,1-.247,1.21,2.2,2.2,0,0,0-.283.22,1.013,1.013,0,0,0-.214.23,0.638,0.638,0,0,0-.042.55,4.947,4.947,0,0,0,2.76,3.09,1.346,1.346,0,0,0,.707.18,1.953,1.953,0,0,0,.876-0.79,0.83,0.83,0,0,1,.993-0.04c0.319,0.21.629,0.43,0.936,0.65a9.039,9.039,0,0,1,.881.68,0.7,0.7,0,0,1,.209.87,2.938,2.938,0,0,1-1.257,1.4,3.115,3.115,0,0,1-.543.18c-0.212-.07.184-0.06,0,0h0Zm0,0-3-11.18a5.184,5.184,0,0,1,5.082,4.33c0.076,0.43.1,0.88,0.137,1.32a0.306,0.306,0,0,1-.286.36,0.331,0.331,0,0,1-.31-0.36c-0.026-.36-0.044-0.73-0.094-1.09a4.578,4.578,0,0,0-3.66-3.85c-0.284-.05-0.575-0.06-0.863-0.1a0.408,0.408,0,0,1-.459-0.25,0.314,0.314,0,0,1,.306-0.36h0.147c2.545,0.07-.049,0,0,0h0Zm0,0,3.867,5.07a1.239,1.239,0,0,1-.025.18,0.288,0.288,0,0,1-.544.03,0.727,0.727,0,0,1-.031-0.25,3.131,3.131,0,0,0-.389-1.56,2.907,2.907,0,0,0-1.207-1.15,3.6,3.6,0,0,0-.962-0.3c-0.145-.02-0.291-0.03-0.437-0.06a0.291,0.291,0,0,1,.042-0.58,3.884,3.884,0,0,1,1.667.44,3.406,3.406,0,0,1,1.835,2.65c0.008,0.05.02,0.11,0.024,0.16,0.011,0.13.017,0.27,0.027,0.44,0,0.04-.01-0.17,0,0h0Zm0,0-1.583-.06a0.31,0.31,0,0,1-.349-0.31,3.137,3.137,0,0,0-.059-0.41,1.137,1.137,0,0,0-.422-0.67,1.117,1.117,0,0,0-.344-0.17c-0.156-.05-0.318-0.03-0.474-0.07a0.292,0.292,0,0,1-.236-0.34,0.306,0.306,0,0,1,.323-0.25,1.757,1.757,0,0,1,1.791,1.76,0.806,0.806,0,0,1,0,.25,0.254,0.254,0,0,1-.228.21c-0.213.01,0.1-.01,0,0h0Zm0,0,0.712,6.17c0.184-.06-0.212-0.07,0,0h0Zm0,0-3-11.18H679.5c0.141,0.01,2.437.07-.007,0h0Zm0,0,3.867,5.07c-0.01-.17,0,0.04,0,0h0Zm0,0-1.583-.06h0Zm0,0,0,0h0Zm0,0,0.01,0h0Zm0,0" transform="translate(-668.969 -1346.03)"/>
</svg>
