<svg xmlns="http://www.w3.org/2000/svg" width="21" height="21" viewBox="0 0 21 21">
  <metadata><?xpacket begin="﻿" id="W5M0MpCehiHzreSzNTczkc9d"?>
<x:xmpmeta xmlns:x="adobe:ns:meta/" x:xmptk="Adobe XMP Core 5.6-c138 79.159824, 2016/09/14-01:09:01        ">
   <rdf:RDF xmlns:rdf="http://www.w3.org/1999/02/22-rdf-syntax-ns#">
      <rdf:Description rdf:about=""/>
   </rdf:RDF>
</x:xmpmeta>
                                                                                                    
                                                                                                    
                                                                                                    
                                                                                                    
                                                                                                    
                                                                                                    
                                                                                                    
                                                                                                    
                                                                                                    
                                                                                                    
                                                                                                    
                                                                                                    
                                                                                                    
                                                                                                    
                                                                                                    
                                                                                                    
                                                                                                    
                                                                                                    
                                                                                                    
                                                                                                    
                           
<?xpacket end="w"?></metadata>
<defs>
    <style>
      .cls-1 {
        fill: #71bf44;
        fill-rule: evenodd;
      }
    </style>
  </defs>
  <path class="cls-1" d="M437.987,1346.01A10.461,10.461,0,0,0,428,1356.44a10.294,10.294,0,0,0,1.143,4.7l-1.114,5.37a0.409,0.409,0,0,0,.494.48l5.3-1.25a10.44,10.44,0,1,0,4.162-19.73h0Zm6.326,16.17a8.277,8.277,0,0,1-9.472,1.54l-0.738-.37-3.251.77,0.684-3.3-0.363-.7a8.127,8.127,0,0,1,1.514-9.48,8.289,8.289,0,0,1,11.626,0,8.119,8.119,0,0,1,0,11.54h0Zm0,0-0.718-3.51-2.034-.58a0.771,0.771,0,0,0-.75.2l-0.5.5a0.751,0.751,0,0,1-.805.17,10.886,10.886,0,0,1-3.5-3.06,0.738,0.738,0,0,1,.058-0.82l0.434-.56a0.74,0.74,0,0,0,.094-0.76l-0.856-1.92a0.764,0.764,0,0,0-1.184-.27,3.408,3.408,0,0,0-1.323,2c-0.144,1.42.467,3.2,2.777,5.34,2.67,2.47,4.808,2.8,6.2,2.46a3.419,3.419,0,0,0,1.818-1.57,0.754,0.754,0,0,0-.43-1.13h0Zm0,0" transform="translate(-428 -1346)"/>
</svg>
